<svg width="794" height="323" viewBox="0 0 794 323" fill="none" xmlns="http://www.w3.org/2000/svg">
<path opacity="0.3" d="M0.366687 102.6C16.4066 133.409 48.357 155.603 83.2706 157.942C114.176 159.984 148.131 146.315 162.308 117.397C174.867 91.7679 170.856 55.6851 146.054 38.6711C124.173 23.6569 89.459 28.3081 74.1112 50.5209C58.5493 73.0274 70.1926 102.343 89.5567 118.179C113.055 137.465 144.836 135.793 171.459 124.218C206.842 108.883 231.711 78.7389 258.577 52.3152C283.642 27.6556 314.81 3.44107 351.659 2.7696C389.779 2.04763 420.802 30.2544 434.195 64.2215C440.981 81.4369 443.915 100.021 444.159 118.468C444.415 137.176 441.841 156.21 434.655 173.598C421.463 205.484 388.494 233.131 352.149 225.35C336.383 221.969 321.581 212.248 313.967 197.805C306.513 183.657 307.576 166.75 314.387 152.586C321.242 138.215 333.435 127.086 348.371 121.568C363.938 115.915 381.135 116.201 396.955 120.664C435.938 131.673 461.244 166.593 477.801 201.516C493.69 235.029 505.14 272.319 533.104 298.28C544.455 308.825 558.168 317.313 573.431 320.639C589.105 324.029 605.025 321.219 619.439 314.397C655.472 297.41 676.224 261.065 708.549 239.065C735.122 220.992 767.629 212.277 799.666 213.521C815.716 214.109 831.564 217.308 846.585 222.992C864.605 229.884 880.306 241.654 898.461 248.204C912.695 253.331 929.955 254.79 943.369 246.6C959.184 236.946 964.032 217.689 969.495 201.264C974.675 185.65 983.75 167.14 1001.81 164.271C1003.24 164.041 1002.61 161.874 1001.2 162.111C985.136 164.669 975.502 179.54 969.877 193.584C962.931 210.94 960.098 233.005 943.17 244.072C927.731 254.186 907.767 250.199 891.973 243.204C875.287 235.752 860.232 225.3 842.864 219.302C813.586 209.169 781.186 208.66 751.394 216.91C736.447 221.02 722.229 227.429 709.25 235.906C692.833 246.687 679.386 261.074 665.761 275.067C640.956 300.422 608.827 327.935 570.641 317.625C535.382 308.071 513.791 275.237 499.231 244.119C482.524 208.329 469.517 170.161 439.624 142.698C415.949 120.962 381.577 108.273 349.891 118.67C323.375 127.415 302.941 154.865 306.997 183.415C311.292 213.517 343.214 232.069 371.955 228.434C405.679 224.161 430.448 195.949 440.202 164.845C450.471 132.014 448.644 92.9934 435.41 61.2654C422.537 30.415 395.207 4.2584 360.841 0.890784C328.636 -2.26702 297.989 14.5834 274.233 34.8071C243.641 60.8715 219.616 94.8058 184.405 115.159C157.477 130.735 121.921 138.576 94.7251 119.32C72.4769 103.562 58.4667 69.9171 79.5921 47.2781C89.7418 36.4079 105.237 31.5334 119.848 32.3534C135.579 33.0703 149.952 41.4767 158.288 54.8366C166.772 68.4509 168.859 85.5078 165.559 101.061C162.035 117.432 152.35 131.822 138.51 141.25C108.931 161.717 68.9293 159.621 39.0232 141.098C23.4562 131.415 10.7755 117.729 2.30595 101.47C1.63255 100.167 -0.299266 101.318 0.366687 102.6Z" fill="#9A97ED"/>
</svg>
