<svg width="748" height="471" viewBox="0 0 748 471" fill="none" xmlns="http://www.w3.org/2000/svg">
<path d="M-36.4 440.049C-22.03 473.349 15.7 494.359 51.5 485.659C68.9162 481.41 84.3102 471.231 95.04 456.869C105.562 442.386 110.077 424.395 107.64 406.659C105.39 389.569 97.19 373.029 83.9 361.859C71.67 351.569 54.28 346.299 38.5 349.859C22.14 353.589 11.55 367.569 10.81 384.089C9.99999 402.209 19.01 419.779 31.5 432.359C44.67 445.549 62.87 453.939 81.68 450.489C100.49 447.039 112.76 432.349 115.57 413.819C118.89 391.959 110.27 371.169 106.35 350.029C102.955 331.501 104.638 312.399 111.22 294.749C123.77 260.619 153 231.969 188.74 223.379C208.3 218.679 231.12 219.679 247.83 231.949C263.04 243.119 269.47 263.199 265.77 281.429C262.03 299.839 247.92 313.379 229.63 317.209C211.5 320.999 191.82 314.929 180.78 299.659C170.19 285.029 168.3 265.039 174.1 248.159C180.5 229.659 196.5 216.119 214.6 209.659C255.6 195.149 297.66 217.229 323.88 248.579C351.34 281.409 364.59 323.059 388.88 357.929C409.83 388.019 443.88 417.199 482.88 414.769C521.5 412.399 548.5 379.119 560.39 344.929C575.54 301.379 573.11 253.929 586.17 209.839C597.89 170.259 624.36 130.679 667.17 121.309C686.631 116.862 707.059 121.441 722.76 133.769C737.32 145.209 747.62 163.099 745.67 182.039C743.67 201.639 729.16 218.379 711.53 226.229C690.53 235.569 665.39 232.509 645.32 222.229C613.01 205.659 592.5 169.659 592.5 133.589C592.58 91.0093 623.1 56.7493 656.84 34.5393C675.57 22.2193 695.84 12.5393 716.07 2.94928C717.38 2.32928 716.24 0.389282 714.93 0.94928C675.41 19.7593 633.76 39.9493 608.51 77.3793C597.89 93.0993 591 111.279 590.31 130.379C589.832 147.837 593.774 165.133 601.77 180.659C618.83 214.209 655.07 238.299 693.6 233.389C712.08 231.039 729.16 221.119 739.44 205.389C749.144 190.798 750.677 172.246 743.5 156.259C736.27 140.159 721.81 127.629 705.42 121.449C688.02 114.879 668.74 116.719 651.81 123.869C612.81 140.349 591.41 179.199 581.47 218.479C575.85 240.649 573.33 263.379 570.38 286.019C567.28 309.869 563.49 334.239 553.46 356.319C545.29 374.319 532.73 390.969 515.89 401.619C498.622 412.539 477.485 415.484 457.89 409.699C416.38 397.699 390.38 359.799 371.2 323.699C351.57 286.759 333.76 246.539 298.2 221.919C281.77 210.539 262.2 202.919 242.02 202.799C223.74 202.679 205.21 208.639 191.02 220.309C177.35 231.44 169.163 247.941 168.57 265.559C168.03 281.859 174 298.799 186.73 309.429C199.46 320.059 217.5 322.929 233.27 318.659C249.46 314.269 262.27 302.279 266.95 286.089C271.49 270.399 268.6 252.399 258.6 239.369C246.89 224.099 226.96 218.259 208.38 218.599C172.52 219.269 139.91 241.029 120.82 270.599C111.19 285.37 105.079 302.154 102.96 319.659C101.949 328.522 102.111 337.479 103.44 346.299C105.27 358.449 109 370.199 111.55 382.199C115.88 402.609 116.22 428.859 96.86 442.019C78.16 454.739 53.86 448.809 37.66 435.019C22.66 422.199 11.27 402.269 13.21 381.969C14.13 372.389 18.68 363.279 26.6 357.599C33.95 352.329 43.19 350.599 52.1 351.209C93.15 354.209 114.86 402.029 102.45 438.149C95.89 457.189 80.2 472.409 61.7 480.029C43.1217 487.664 22.1843 487.105 4.03999 478.489C-13.164 470.403 -26.843 456.34 -34.45 438.919C-35.03 437.589 -36.97 438.739 -36.4 440.049Z" fill="url(#paint0_linear_2_4207)"/>
<defs>
<linearGradient id="paint0_linear_2_4207" x1="747.974" y1="66.6273" x2="175.508" y2="66.6273" gradientUnits="userSpaceOnUse">
<stop stop-color="#323259" stop-opacity="0.01"/>
<stop offset="1" stop-color="#323259"/>
</linearGradient>
</defs>
</svg>
