<svg width="642" height="819" viewBox="0 0 642 819" fill="none" xmlns="http://www.w3.org/2000/svg">
<path opacity="0.3" d="M66.9776 0.0232867C36.7174 6.55132 12.5653 31.1339 3.55821 60.3251C-5.76875 90.566 3.65818 122.306 26.9406 143.5C49.4233 163.944 82.9224 173.591 112.013 162.414C139.224 151.958 162.866 122.137 149.731 92.3255C138.634 67.1531 105.745 52.4375 80.0533 63.4242C54.3617 74.4109 41.8757 105.162 46.5742 131.714C52.5123 165.214 85.0617 183.698 114.822 193.065C150.87 204.482 192.867 206.161 222.397 232.433C245.679 253.147 257.096 285.417 254.776 316.238C253.716 331.683 248.819 346.619 240.531 359.695C231.364 373.881 215.719 386.027 198.465 387.687C179.271 389.536 165.475 374.81 164.086 356.326C162.576 336.002 174.892 318.237 186.599 302.812C208.961 273.361 237.582 244.04 274.73 234.963C307.629 226.965 347.196 236.022 364.641 267.343C384.414 302.852 370.339 345.229 349.376 376.56C337.999 393.555 324.474 409.06 311.158 424.545C297.622 440.291 283.967 455.956 271.171 472.341C246.959 503.412 225.836 537.511 216.729 576.24C208.182 612.569 210.731 651.637 230.894 683.817C249.628 713.808 279.878 734.972 312.048 748.538C352.235 765.533 395.92 772.211 438.507 780.348L575.102 806.46L640.601 818.977C642.01 819.247 642.6 817.087 641.201 816.807L506.245 791.005C462.339 782.618 418.123 775.19 374.517 765.353C335.7 756.586 296.763 743.819 265.343 718.557C251.427 707.37 239.191 693.944 230.304 678.389C220.764 661.397 215.344 642.404 214.48 622.936C210.131 538.251 272.851 473.361 323.564 413.489C347.716 384.957 372.548 353.187 375.867 314.519C377.316 297.804 374.667 280.329 366.28 265.623C358.553 252.354 346.61 242.05 332.351 236.352C301.581 223.706 266.922 230.574 239.551 247.999C224.256 257.766 210.931 270.342 199.035 283.938C186.889 297.834 174.183 313.099 166.805 330.144C160.527 344.66 159.098 362.544 168.355 376.2C176.632 388.396 191.287 392.255 205.153 388.766C235.353 381.169 252.797 350.588 256.486 321.536C260.135 292.725 251.707 262.184 232.874 239.951C208.881 211.67 171.434 204.882 137.195 196.744C104.765 189.046 64.9482 176.06 51.7225 141.881C41.156 114.579 52.4923 78.3997 79.9833 65.9035C107.754 53.2573 145.602 72.9013 150.68 103.182C156.778 139.471 117.131 165.264 85.0917 164.894C53.0521 164.524 21.7223 143.9 8.5166 114.689C-5.20893 84.2779 4.42793 48.2888 27.1505 24.9558C38.0808 13.5614 52.1352 5.6523 67.5474 2.22262C68.9769 1.91272 68.3571 -0.246632 66.9776 0.0232867Z" fill="#9A97ED"/>
</svg>
