<svg width="642" height="558" viewBox="0 0 642 558" fill="none" xmlns="http://www.w3.org/2000/svg">
<path opacity="0.3" d="M-177.996 575.408C-171.466 605.678 -146.876 629.838 -117.676 638.848C-87.4255 648.178 -55.6755 638.748 -34.4755 615.458C-14.0255 592.968 -4.37552 559.458 -15.5555 530.358C-26.0155 503.138 -55.8455 479.488 -85.6655 492.628C-110.846 503.728 -125.566 536.628 -114.576 562.328C-103.586 588.028 -72.8255 600.518 -46.2655 595.818C-12.7555 589.878 5.7345 557.318 15.1045 527.548C26.5245 491.488 28.2045 449.478 54.4845 419.938C75.2045 396.648 107.484 385.228 138.314 387.548C153.764 388.609 168.705 393.507 181.784 401.798C195.974 410.968 208.124 426.618 209.784 443.878C211.634 463.078 196.904 476.878 178.414 478.268C158.085 479.778 140.314 467.458 124.884 455.748C95.4245 433.378 66.0945 404.748 57.0145 367.588C49.0145 334.678 58.0745 295.098 89.4045 277.648C124.924 257.868 167.314 271.948 198.654 292.918C215.654 304.298 231.164 317.828 246.654 331.148C262.404 344.688 278.075 358.348 294.465 371.148C325.544 395.368 359.654 416.498 398.394 425.608C434.734 434.158 473.815 431.608 506.005 411.438C536.005 392.698 557.174 362.438 570.745 330.258C587.745 290.058 594.424 246.358 602.565 203.758L628.685 67.1181L641.204 1.59808C641.474 0.18811 639.315 -0.401917 639.034 0.998108L613.224 135.998C604.834 179.918 597.405 224.148 587.565 267.768C578.794 306.598 566.025 345.548 540.755 376.978C529.565 390.898 516.135 403.138 500.575 412.028C483.578 421.572 464.578 426.994 445.104 427.858C360.394 432.208 295.484 369.468 235.594 318.738C207.054 294.578 175.274 269.738 136.594 266.418C119.874 264.968 102.395 267.618 87.6845 276.008C74.4109 283.737 64.1041 295.685 58.4045 309.948C45.7545 340.728 52.6245 375.398 70.0545 402.778C79.8245 418.078 92.4045 431.408 106.004 443.308C119.904 455.458 135.174 468.168 152.224 475.548C166.744 481.828 184.634 483.258 198.294 473.998C210.495 465.718 214.354 451.058 210.865 437.188C203.264 406.978 172.674 389.528 143.615 385.838C114.794 382.188 84.2445 390.618 62.0045 409.458C33.7145 433.458 26.9245 470.918 18.7845 505.168C11.0845 537.608 -1.9055 577.438 -36.0955 590.668C-63.4055 601.238 -99.5955 589.898 -112.096 562.398C-124.746 534.618 -105.096 496.758 -74.8055 491.678C-38.5055 485.578 -12.7055 525.238 -13.0755 557.288C-13.4455 589.338 -34.0755 620.678 -63.2955 633.888C-93.7155 647.618 -129.716 637.978 -153.056 615.248C-164.453 604.314 -172.365 590.255 -175.796 574.838C-176.106 573.408 -178.266 574.028 -177.996 575.408Z" fill="#9A97ED"/>
</svg>
